# xmcd
# Copyright (C) 1995-1998 Ti Kan
#
# Track frame offsets:
#       150
#       9529
#       142809
#       274826
#       352917
#
# Disc length: 4720 seconds
#
# Revision: 0
# Processed by: cddbd v1.5.2PL0 Copyright (c) Steve Scherf et al.
# Submitted via: CD-Import v1.0
#
DISCID=3d126e05
DTITLE=Robert James Baker - Treibstoff
DYEAR=1900
DGENRE=
TTITLE0=Treibstoff1 Anmodi
TTITLE1=Treibstoff 1.1
TTITLE2=Treibstoff 1.2
TTITLE3=Treibstoff 1.3
TTITLE4=Treibstoff1 Abmodi
EXTD=
EXTT0=
EXTT1=
EXTT2=
EXTT3=
EXTT4=
PLAYORDER=
